<?xml version="1.0" encoding="utf-8"?>
<!-- Generator: Adobe Illustrator 24.3.0, SVG Export Plug-In . SVG Version: 6.00 Build 0)  -->
<svg version="1.1" id="Layer_1" xmlns="http://www.w3.org/2000/svg" xmlns:xlink="http://www.w3.org/1999/xlink" x="0px" y="0px"
	 width="250px" height="94.3px" viewBox="0 0 250 94.3" style="enable-background:new 0 0 250 94.3;" xml:space="preserve">
<style type="text/css">
	.st0{fill:#512047;}
	.st1{font-family:'Raleway-Medium';}
	.st2{font-size:14.3776px;}
	.st3{letter-spacing:2;}
</style>
<g id="Layer_x0020_1">
	<path class="st0" d="M82.7,36.8c1-1.4,2.5-2.5,3.9-3.3c1.4-0.8,3.1-1.2,4.9-1.2c2.3,0,4.3,0.6,6.2,1.6c1.8,1,3.3,2.7,4.3,4.7
		l3.5-2.5c-1.2-2.5-2.9-4.3-5.1-5.8c-2.3-1.4-5.1-2.3-8.6-2.3c-2.5,0-4.7,0.4-6.8,1.4c-2.1,1-3.9,2.3-5.3,4.1
		c-1.4,1.6-2.7,3.7-3.5,6s-1.2,4.5-1.2,7c0,2.3,0.4,4.7,1.2,6.8c0.8,2.3,2.1,4.1,3.5,6c1.6,1.8,3.3,3.1,5.3,4.1
		c2.1,1,4.3,1.6,6.8,1.6c3.1,0,5.8-0.8,8.2-2.7V58c-0.6,0.6-1.2,1-2.1,1.4c-1.8,1-3.9,1.6-6,1.6c-1.8,0-3.5-0.4-4.9-1.2
		c-1.6-0.8-2.9-1.8-4.1-3.1c-1.2-1.2-2.1-2.9-2.7-4.5c-0.6-1.6-1-3.5-1-5.5c0-1.8,0.2-3.7,0.8-5.3C80.9,39.7,81.7,38.1,82.7,36.8
		L82.7,36.8z"/>
	<polygon class="st0" points="106.8,46.7 106.8,65 102.9,65 102.9,50.2 94.8,50.2 94.8,46.7 	"/>
	<path class="st0" d="M132.2,36.8c1-1.4,2.5-2.5,3.9-3.3c1.4-0.8,3.1-1.2,4.9-1.2c2.3,0,4.3,0.6,6.2,1.6c1.8,1,3.3,2.7,4.3,4.7
		l3.5-2.5c-1.2-2.5-2.9-4.3-5.1-5.8c-2.3-1.4-5.1-2.3-8.6-2.3c-2.5,0-4.7,0.4-6.8,1.4c-2.1,1-3.9,2.3-5.3,4.1
		c-1.4,1.6-2.7,3.7-3.5,6c-0.8,2.3-1.2,4.5-1.2,7c0,2.3,0.4,4.7,1.2,6.8c0.8,2.3,2.1,4.1,3.5,6c1.6,1.8,3.3,3.1,5.3,4.1
		c2.1,1,4.3,1.6,6.8,1.6c3.1,0,5.8-0.8,8.2-2.7v-4.3c-0.6,0.4-1.2,1-1.8,1.2c-1.8,1-3.9,1.6-6,1.6c-1.8,0-3.5-0.4-4.9-1.2
		c-1.6-0.8-2.9-1.8-4.1-3.1c-1.2-1.2-2.1-2.9-2.7-4.5c-0.6-1.6-1-3.5-1-5.5c0-1.8,0.2-3.7,0.8-5.3C130.4,39.7,131.2,38.1,132.2,36.8
		L132.2,36.8z"/>
	<polygon class="st0" points="156.3,46.7 156.3,65 152.4,65 152.4,50.2 144.5,50.2 144.5,46.7 	"/>
	<path class="st0" d="M179.3,56.3c0,0.4-0.2,0.8-0.4,1.2c-0.2,0.4-0.6,1-1,1.4c-0.8,0.8-1.8,1.6-3.1,2.1c-1.2,0.6-2.7,0.8-3.9,0.8
		s-2.5-0.2-3.3-0.8c-0.8-0.6-1.6-1.2-2.1-2.1c-0.4-0.8-0.6-1.6-0.6-2.5c0-1.6,0.6-2.9,2.1-3.7c1.4-0.8,3.3-1.4,5.5-1.4
		c1,0,2.3,0.2,3.5,0.4c1.2,0.2,2.3,0.6,3.3,1L179.3,56.3L179.3,56.3z M184.2,61.1c-0.2-0.2-0.4-0.6-0.4-1.2V48.5c0-3.3-1-6-2.9-7.8
		c-2.1-1.8-4.7-2.9-8-2.9c-1.8,0-3.7,0.2-5.3,0.8c-1.6,0.6-3.5,1.4-5.1,2.7l1.6,3.1c1.4-1,2.9-1.8,4.3-2.3c1.4-0.6,2.7-0.8,4.3-0.8
		c2.3,0,3.9,0.6,5.1,1.6c1.2,1.2,1.8,2.7,1.8,4.7v1.8c-1-0.4-2.3-0.6-3.5-0.8c-1.4-0.2-2.7-0.2-3.9-0.2c-2.3,0-4.3,0.4-6,1
		c-1.6,0.6-3.1,1.6-4.1,2.9c-1,1.2-1.4,2.7-1.4,4.5c0,1.4,0.4,2.9,1.2,4.1c0.8,1.2,1.8,2.3,3.3,2.9c1.4,0.8,3.1,1,4.7,1
		c1.8,0,3.7-0.4,5.5-1.2c1.8-0.8,3.5-2.1,4.5-3.5v1.6c0,0.6,0.4,1.2,0.8,1.8c0.6,0.6,1.2,0.8,2.5,0.8c0.2,0,0.4,0,0.8,0
		c0.4,0,0.6,0,1.2-0.2v-3.5C184.8,61.5,184.4,61.3,184.2,61.1L184.2,61.1z"/>
	<path class="st0" d="M203.7,60.2c-0.2,0.2-0.8,0.4-1.4,0.6c-0.8,0.2-1.6,0.4-2.5,0.4c-0.8,0-1.4-0.2-2.1-0.6
		c-0.6-0.4-0.8-1.2-1-2.1V42h6v-3.7h-6v-8.8h-4.5v8.8h-3.7v3.5h3.7v18.1c0,1.2,0.2,2.3,0.8,3.1c0.6,0.8,1.2,1.4,2.3,1.8
		c0.8,0.4,1.8,0.6,3.1,0.6c1,0,1.8,0,2.7-0.4c0.8-0.2,1.6-0.4,2.3-0.6c0.6-0.2,1.2-0.4,1.4-0.6L203.7,60.2L203.7,60.2z"/>
	<path class="st0" d="M211.3,50c0.2-1.6,0.6-3.3,1.4-4.5c0.8-1.2,1.8-2.3,3.3-3.1c1.2-0.8,2.9-1,4.3-1c1.6,0,3.1,0.4,4.5,1
		c1.2,0.8,2.5,1.8,3.3,3.1c0.8,1.2,1.4,2.9,1.4,4.5H211.3L211.3,50z M232.3,44.8c-1-2.1-2.7-3.7-4.7-4.9c-2.1-1.2-4.3-1.8-7-1.8
		s-5.1,0.6-7.2,1.8c-2.1,1.2-3.7,2.9-4.9,4.9c-1.2,2.1-1.6,4.3-1.6,6.8c0,1.8,0.4,3.7,1,5.3c0.6,1.6,1.6,3.1,2.9,4.3
		c1.2,1.2,2.7,2.3,4.3,3.1c1.6,0.8,3.5,1,5.5,1c1.8,0,3.5-0.2,5.1-0.8c1.6-0.6,2.9-1.4,4.1-2.5c1.2-1,2.1-2.3,2.7-3.5l-3.9-1
		c-0.6,1.4-1.6,2.5-3.1,3.3c-1.4,0.8-3.1,1.2-4.7,1.2c-1.4,0-2.9-0.4-4.3-1.2c-1.2-0.8-2.5-1.8-3.3-3.1c-0.8-1.4-1.2-2.9-1.4-4.5
		h22.2c0-0.2,0-0.4,0-0.8s0-0.6,0-1C233.9,49.1,233.3,46.9,232.3,44.8L232.3,44.8z"/>
	<path class="st0" d="M10,25.3c-1,0-1.8-0.6-2.3-1.4C7.1,22.7,7.6,21,9,20.4L37.5,6.2c1.2-0.6,2.7-0.6,3.9,0l28.3,14.4
		c1.2,0.6,1.8,2.3,1.2,3.5c-0.6,1.2-2.3,1.8-3.5,1.2L39.6,11.2L11,25.1C10.8,25.1,10.4,25.3,10,25.3L10,25.3z"/>
	<path class="st0" d="M58.5,48.9V60c0,5.1-2.1,9.4-5.8,12.5c-3.3,2.7-8,4.3-13.1,4.3c-10.5,0-18.9-8.4-18.9-18.9V31.9
		c0-1.8,1-3.7,2.9-4.5l14-7c1.4-0.6,3.1-0.6,4.5,0L57.3,28c1.2,0.6,1.8,2.3,1.2,3.5c-0.6,1.2-2.3,1.8-3.5,1.2l-15.4-7.6l-14,7v25.7
		c0,7.6,6.2,13.8,13.8,13.8c6.4,0,13.8-3.1,13.8-11.5V49.1h-8.8c0.2-0.6,0.2-1,0.2-1.6c0-1.2-0.4-2.7-1.4-3.5h10.1
		C56.2,43.8,58.5,46.1,58.5,48.9z"/>
	<path class="st0" d="M41.6,50.6l-0.4,0.2l1.2,10.1h-6l1.2-10.3l-0.4-0.2c-1-0.6-1.6-1.8-1.4-3.1c0-1.8,1.6-3.5,3.5-3.7
		c0.4,0,0.8,0,1.2,0.2c0.6,0.2,1,0.4,1.4,0.8c0.8,0.6,1.2,1.6,1.2,2.7c0,0.6-0.2,1.2-0.4,1.6C42.7,49.8,42.1,50.2,41.6,50.6z"/>
	<path class="st0" d="M234.9,33.1v-4.3h-1.6v-0.6h3.9v0.6h-1.6v4.3H234.9z M237.8,33.1v-4.7h1l1.2,3.5c0.2,0.4,0.2,0.6,0.2,0.6
		c0-0.2,0.2-0.4,0.2-0.8l1.2-3.3h0.8v4.7h-0.6V29l-1.4,4.1h-0.6l-1.4-4.1v4.1H237.8z"/>
	<text transform="matrix(1 0 0 1 74.9203 86.1493)" class="st0 st1 st2 st3">Always VIGILANT !</text>
</g>
</svg>
